<svg height="511pt" viewBox="0 -60 511.998 511" width="511pt" xmlns="http://www.w3.org/2000/svg"><path d="m389.992188 224.359375h-17.253907c-4.144531 0-7.5 3.355469-7.5 7.5 0 4.140625 3.355469 7.5 7.5 7.5h17.253907c4.140624 0 7.5-3.359375 7.5-7.5 0-4.144531-3.359376-7.5-7.5-7.5zm0 0"/><path d="m415.296875 96.585938c-1.445313-5.492188-6.417969-9.324219-12.097656-9.324219h-30.453125c-6.898438 0-12.507813 5.609375-12.507813 12.507812v97.335938c0 6.894531 5.609375 12.507812 12.507813 12.507812h56.082031c3.90625 0 7.519531-1.777343 9.90625-4.871093 2.386719-3.097657 3.183594-7.042969 2.1875-10.824219zm-40.058594 98.027343v-92.351562h26.042969l24.3125 92.351562zm0 0"/><path d="m404.179688 312.695312c-13.929688 0-25.261719 11.332032-25.261719 25.261719 0 13.929688 11.332031 25.261719 25.261719 25.261719 13.929687 0 25.261718-11.332031 25.261718-25.261719 0-13.929687-11.332031-25.261719-25.261718-25.261719zm0 35.523438c-5.65625 0-10.261719-4.605469-10.261719-10.261719s4.605469-10.261719 10.261719-10.261719c5.660156 0 10.261718 4.605469 10.261718 10.261719s-4.601562 10.261719-10.261718 10.261719zm0 0"/><path d="m81.558594 337.957031c0 13.929688 11.332031 25.261719 25.261718 25.261719 13.929688 0 25.261719-11.332031 25.261719-25.261719 0-13.929687-11.332031-25.261719-25.261719-25.261719-13.929687 0-25.261718 11.332032-25.261718 25.261719zm35.523437 0c0 5.65625-4.605469 10.261719-10.261719 10.261719s-10.261718-4.605469-10.261718-10.261719 4.605468-10.261719 10.261718-10.261719 10.261719 4.605469 10.261719 10.261719zm0 0"/><path d="m145.78125 244.707031c4.144531 0 7.5-3.359375 7.5-7.5s-3.355469-7.5-7.5-7.5h-98.734375c-4.144531 0-7.5 3.359375-7.5 7.5s3.355469 7.5 7.5 7.5zm0 0"/><path d="m486.550781 195.179688h-4.699219c-5.402343 0-10.128906-3.457032-11.761718-8.609376l-36.746094-115.820312h7.113281c3.746094 0 7.226563-1.691406 9.539063-4.640625 2.316406-2.949219 3.136718-6.726563 2.246094-10.371094l-5.542969-22.710937c-1.328125-5.449219-6.175781-9.253906-11.785157-9.253906h-86.652343v-11.8125c0-6.320313-5.140625-11.460938-11.460938-11.460938h-307.460937c-6.320313 0-11.460938 5.140625-11.460938 11.460938v35.296874c0 4.144532 3.359375 7.5 7.5 7.5s7.5-3.355468 7.5-7.5v-31.757812h300.382813v295.714844h-181.121094c-9.171875-15.488282-26.050781-25.902344-45.320313-25.902344-19.269531 0-36.144531 10.414062-45.320312 25.902344h-28.621094v-37.136719h73.359375c4.140625 0 7.5-3.359375 7.5-7.5s-3.359375-7.5-7.5-7.5h-73.359375v-178.09375c0-4.144531-3.359375-7.5-7.5-7.5s-7.5 3.355469-7.5 7.5v178.09375h-10.378906c-4.140625 0-7.5 3.359375-7.5 7.5 0 4.144531 3.359375 7.5 7.5 7.5h10.378906v40.675781c0 6.320313 5.140625 11.460938 11.460938 11.460938h26.175781c-.867187 3.777344-1.339844 7.707031-1.339844 11.742187 0 29.027344 23.617188 52.644531 52.644531 52.644531 9.421876 0 18.664063-2.519531 26.738282-7.285156 3.566406-2.109375 4.75-6.707031 2.644531-10.273437-2.105469-3.566407-6.703125-4.75-10.273437-2.644531-5.761719 3.40625-12.371094 5.203124-19.109376 5.203124-20.753906 0-37.644531-16.886718-37.644531-37.644531 0-20.757812 16.890625-37.644531 37.644531-37.644531 20.757813 0 37.644532 16.886719 37.644532 37.632812-.003906 1.875-.226563 5.65625-.808594 7.824219-.011719.042969-.019531.085938-.03125.125l-.640625 2.5625c-1 4.019531 1.445313 8.089844 5.460937 9.089844 4.019532 1 8.089844-1.441406 9.09375-5.460937l.625-2.503907c1.261719-4.769531 1.300782-10.929687 1.300782-11.625 0-4.035156-.472656-7.964843-1.335938-11.742187h194.742188c-.863282 3.78125-1.335938 7.707031-1.335938 11.742187 0 29.027344 23.617188 52.644531 52.644532 52.644531 29.027343 0 52.644531-23.613281 52.644531-52.644531 0-4.035156-.472657-7.964843-1.335938-11.742187h45.046875c6.320313 0 11.460938-5.140625 11.460938-11.460938v-94.125c.003906-14.03125-11.414063-25.449218-25.445313-25.449218zm-138.289062-156.410157h84.398437l4.144532 16.976563h-88.542969zm55.917969 336.832031c-20.753907 0-37.644532-16.886718-37.644532-37.644531 0-20.757812 16.890625-37.644531 37.644532-37.644531 20.757812 0 37.648437 16.886719 37.648437 37.644531 0 20.757813-16.890625 37.644531-37.648437 37.644531zm92.820312-121.363281h-16.34375v-16.34375h16.34375zm0-31.34375h-18.835938c-6.898437 0-12.507812 5.609375-12.507812 12.507813v21.324218c0 6.898438 5.609375 12.511719 12.507812 12.511719h18.835938v41.976563h-47.5c-9.171875-15.488282-26.050781-25.902344-45.320312-25.902344-19.269532 0-36.144532 10.414062-45.320313 25.902344h-10.597656v-240.46875h69.34375l6.875 21.671875 31.3125 98.6875c3.617187 11.410156 14.089843 19.074219 26.058593 19.074219h4.699219c5.761719 0 10.449219 4.6875 10.449219 10.449218zm0 0"/><path d="m284.734375 169.539062c-3.308594-45.421874-36.511719-82.675781-79.972656-92.132812.339843-1.542969.527343-3.140625.527343-4.78125 0-12.25-9.96875-22.214844-22.21875-22.214844s-22.21875 9.964844-22.21875 22.214844c0 1.640625.195313 3.238281.535157 4.777344-43.464844 9.453125-76.671875 46.710937-79.980469 92.136718-7.234375.234376-13.050781 6.175782-13.050781 13.464844v13.121094c0 7.4375 6.050781 13.484375 13.484375 13.484375h202.457031c7.4375 0 13.488281-6.046875 13.488281-13.484375v-13.121094c0-7.289062-5.816406-13.230468-13.050781-13.464844zm-108.882813-96.910156c0-3.980468 3.238282-7.21875 7.21875-7.21875 3.980469 0 7.21875 3.238282 7.21875 7.21875 0 .945313-.1875 1.84375-.519531 2.671875-2.214843-.140625-4.449219-.222656-6.699219-.222656s-4.484374.082031-6.699218.222656c-.332032-.828125-.519532-1.726562-.519532-2.671875zm7.21875 17.449219c45.414063 0 82.804688 35 86.621094 79.441406h-173.242187c3.8125-44.445312 41.207031-79.441406 86.621093-79.441406zm99.714844 104.53125h-199.429687v-10.089844h199.429687zm0 0"/></svg>