<svg height="480pt" viewBox="-48 0 480 480" width="480pt" xmlns="http://www.w3.org/2000/svg"><path d="m192 480c109.457031 0 192-96.304688 192-224 0-136.375-89.71875-256-192-256s-192 119.625-192 256c0 127.695312 82.542969 224 192 224zm0-16c-66.792969 0-122.617188-39.65625-152.496094-101.128906l22.824219-16.910156 38.398437 28.472656c2.832032 2.097656 6.699219 2.097656 9.53125 0l38.398438-28.472656 38.398438 28.472656c2.828124 2.09375 6.691406 2.09375 9.519531 0l38.441406-28.472656 38.398437 28.464843c2.832032 2.097657 6.699219 2.097657 9.53125 0l38.453126-28.480469 22.960937 16.984376c-29.785156 61.445312-85.589844 101.070312-152.359375 101.070312zm-176-208c.015625-10.761719.613281-21.515625 1.785156-32.214844 2.144532.414063 4.367188-.078125 6.136719-1.359375l38.398437-28.464843 38.398438 28.472656c2.832031 2.097656 6.699219 2.097656 9.527344 0l38.402344-28.472656 38.398437 28.472656c2.828125 2.09375 6.691406 2.09375 9.519531 0l38.441406-28.472656 38.398438 28.464843c2.832031 2.097657 6.699219 2.097657 9.53125 0l38.453125-28.480469 38.609375 28.453126c1.371094 1.035156 3.035156 1.59375 4.753906 1.601562.488282-.03125.976563-.109375 1.453125-.230469 1.179688 10.703125 1.777344 21.460938 1.792969 32.230469.03125 17.660156-1.722656 35.277344-5.230469 52.585938l-36.503906-26.984376c-2.828125-2.09375-6.695313-2.09375-9.523437 0l-38.453126 28.46875-38.402343-28.460937c-2.828125-2.09375-6.691407-2.09375-9.519531 0l-38.398438 28.46875-38.402344-28.46875c-2.828125-2.09375-6.691406-2.09375-9.519531 0l-38.398437 28.46875-38.402344-28.46875c-2.828125-2.097656-6.695313-2.097656-9.527344 0l-36.34375 26.933594c-3.554688-17.289063-5.355469-34.890625-5.375-52.542969zm12.328125-84.847656 34-25.191406 38.398437 28.472656c2.832032 2.097656 6.699219 2.097656 9.53125 0l38.398438-28.472656 38.398438 28.472656c2.828124 2.09375 6.691406 2.09375 9.519531 0l38.441406-28.472656 38.398437 28.464843c2.832032 2.097657 6.699219 2.097657 9.53125 0l38.453126-28.480469 34.195312 25.292969c3.296875 11.15625 5.9375 22.492188 7.910156 33.953125l-37.238281-27.589844c-2.828125-2.09375-6.695313-2.09375-9.523437 0l-38.453126 28.46875-38.402343-28.460937c-2.828125-2.09375-6.691407-2.09375-9.519531 0l-38.398438 28.46875-38.402344-28.46875c-2.828125-2.09375-6.691406-2.09375-9.519531 0l-38.398437 28.46875-38.402344-28.46875c-2.828125-2.097656-6.695313-2.097656-9.527344 0l-37.152344 27.535156c1.921875-11.472656 4.515625-22.824219 7.761719-33.992187zm9.367187-26.855469c6.589844-16.265625 14.761719-31.839844 24.402344-46.503906l38.65625 28.640625c2.828125 2.097656 6.695313 2.097656 9.527344 0l38.398438-28.472656 38.398437 28.472656c2.828125 2.09375 6.695313 2.09375 9.523437 0l38.4375-28.472656 38.402344 28.464843c2.828125 2.097657 6.695313 2.097657 9.527344 0l38.800781-28.730469c9.691407 14.730469 17.898438 30.386719 24.503907 46.738282l-20.007813-14.832032c-2.828125-2.09375-6.695313-2.09375-9.523437 0l-38.453126 28.46875-38.402343-28.460937c-2.828125-2.09375-6.691407-2.09375-9.519531 0l-38.398438 28.46875-38.402344-28.46875c-2.828125-2.09375-6.691406-2.09375-9.519531 0l-38.398437 28.46875-38.402344-28.46875c-2.828125-2.097656-6.695313-2.097656-9.527344 0zm24.632813 153.664063 38.398437 28.472656c2.832032 2.097656 6.699219 2.097656 9.53125 0l38.398438-28.472656 38.398438 28.472656c2.828124 2.09375 6.691406 2.09375 9.519531 0l38.441406-28.472656 38.398437 28.464843c2.832032 2.097657 6.699219 2.097657 9.53125 0l38.453126-28.480469 37.144531 27.480469c-2.117188 7.628907-4.632813 15.148438-7.535157 22.519531l-24.847656-18.402343c-2.828125-2.09375-6.691406-2.09375-9.519531 0l-38.457031 28.472656-38.398438-28.464844c-2.828125-2.09375-6.691406-2.09375-9.519531 0l-38.402344 28.472657-38.398437-28.472657c-2.828125-2.09375-6.691406-2.09375-9.519532 0l-38.402343 28.472657-38.398438-28.472657c-2.832031-2.097656-6.699219-2.097656-9.527343 0l-24.707032 18.304688c-2.890625-7.367188-5.402344-14.878907-7.519531-22.503907zm129.671875-281.960938c45.648438 0 88.535156 26.632812 120.558594 68.664062l-34.269532 25.375-38.402343-28.464843c-2.828125-2.09375-6.691407-2.09375-9.519531 0l-38.398438 28.472656-38.402344-28.472656c-2.828125-2.09375-6.691406-2.09375-9.519531 0l-38.398437 28.472656-34.136719-25.285156c31.894531-42.097657 74.808593-68.761719 120.488281-68.761719zm0 0"/><path d="m56 224h16v16h-16zm0 0"/><path d="m96 264h16v16h-16zm0 0"/><path d="m136 224h16v16h-16zm0 0"/><path d="m184 264h16v16h-16zm0 0"/><path d="m224 224h16v16h-16zm0 0"/><path d="m272 264h16v16h-16zm0 0"/><path d="m312 224h16v16h-16zm0 0"/><path d="m192 432v16c2.769531 0 68.230469-.574219 110.144531-50.878906l-12.289062-10.242188c-37.054688 44.425782-97.261719 45.121094-97.855469 45.121094zm0 0"/><path d="m160 432h16v16h-16zm0 0"/><path d="m192 48v-16c-35.394531 1.988281-68.785156 17.082031-93.65625 42.34375l11.3125 11.3125c21.992188-22.097656 51.246094-35.472656 82.34375-37.65625zm0 0"/><path d="m208 32h16v16h-16zm0 0"/></svg>