<svg height="512pt" viewBox="-213 0 512 512" width="512pt" xmlns="http://www.w3.org/2000/svg"><path d="m52.070312 303.730469c0 4.792969-3.886718 8.675781-8.679687 8.675781-4.789063 0-8.675781-3.882812-8.675781-8.675781s3.886718-8.679688 8.675781-8.679688c4.792969 0 8.679687 3.886719 8.679687 8.679688zm0 0"/><path d="m52.070312 338.441406c0 4.792969-3.886718 8.675782-8.679687 8.675782-4.789063 0-8.675781-3.882813-8.675781-8.675782 0-4.792968 3.886718-8.679687 8.675781-8.679687 4.792969 0 8.679687 3.886719 8.679687 8.679687zm0 0"/><path d="m86.78125 121.492188v-112.8125c0-4.800782-3.886719-8.679688-8.675781-8.679688-4.792969 0-8.679688 3.878906-8.679688 8.679688v112.8125c0 11.296874-7.28125 20.84375-17.355469 24.4375v-137.25c0-4.800782-3.890624-8.679688-8.679687-8.679688s-8.679687 3.878906-8.679687 8.679688v137.25c-10.074219-3.59375-17.355469-13.140626-17.355469-24.4375v-112.8125c0-4.800782-3.886719-8.679688-8.675781-8.679688-4.792969 0-8.679688 3.878906-8.679688 8.679688v112.8125c0 20.949218 14.933594 38.476562 34.710938 42.511718v88.890625c-14.925782 3.878907-26.035157 17.347657-26.035157 33.476563v190.917968c0 19.144532 15.570313 34.710938 34.710938 34.710938 19.144531 0 34.710937-15.566406 34.710937-34.710938v-190.917968c0-16.128906-11.105468-29.597656-26.03125-33.476563v-88.890625c19.78125-4.035156 34.714844-21.5625 34.714844-42.511718zm-26.03125 164.878906v190.917968c0 9.570313-7.785156 17.355469-17.359375 17.355469-9.570313 0-17.355469-7.785156-17.355469-17.355469v-190.917968c0-9.570313 7.785156-17.355469 17.355469-17.355469 9.574219 0 17.359375 7.785156 17.359375 17.355469zm0 0"/></svg>