<?xml version="1.0" encoding="iso-8859-1"?>
<!-- Generator: Adobe Illustrator 19.0.0, SVG Export Plug-In . SVG Version: 6.00 Build 0)  -->
<svg version="1.1" id="Capa_1" xmlns="http://www.w3.org/2000/svg" xmlns:xlink="http://www.w3.org/1999/xlink" x="0px" y="0px"
	 viewBox="0 0 511 511" style="enable-background:new 0 0 511 511;" xml:space="preserve">
<g>
	<path d="M431,175.5C431,78.729,352.271,0,255.5,0S80,78.729,80,175.5c0,88.803,66.301,162.402,152,173.922v28.523
		c-4.765,2.647-8,7.728-8,13.555v88c0,17.369,14.131,31.5,31.5,31.5s31.5-14.131,31.5-31.5v-88c0-5.827-3.235-10.908-8-13.555
		v-28.523C364.699,337.902,431,264.303,431,175.5z M95,175.5C95,87,167,15,255.5,15S416,87,416,175.5S344,336,255.5,336
		S95,264,95,175.5z M272,479.5c0,9.098-7.402,16.5-16.5,16.5s-16.5-7.402-16.5-16.5v-88c0-0.276,0.224-0.5,0.5-0.5h32
		c0.276,0,0.5,0.224,0.5,0.5V479.5z M264,376h-17v-25.209c2.817,0.135,5.65,0.209,8.5,0.209s5.683-0.074,8.5-0.209V376z"/>
	<path d="M383,175.5C383,105.196,325.804,48,255.5,48S128,105.196,128,175.5S185.196,303,255.5,303S383,245.804,383,175.5z
		 M143,175.5C143,113.467,193.467,63,255.5,63S368,113.467,368,175.5S317.533,288,255.5,288S143,237.533,143,175.5z"/>
	<path d="M255.5,472c-1.97,0-3.91,0.8-5.3,2.2c-1.4,1.39-2.2,3.33-2.2,5.3c0,1.97,0.8,3.91,2.2,5.3c1.39,1.4,3.33,2.2,5.3,2.2
		c1.98,0,3.91-0.8,5.3-2.2c1.4-1.39,2.2-3.33,2.2-5.3c0-1.98-0.8-3.91-2.2-5.3C259.41,472.8,257.47,472,255.5,472z"/>
	<path d="M263,263.5c0-4.142-3.358-7.5-7.5-7.5c-27.304,0-52.526-13.671-67.469-36.57c-2.263-3.469-6.912-4.446-10.379-2.182
		c-3.469,2.264-4.446,6.911-2.182,10.379C193.192,254.786,223.11,271,255.5,271C259.642,271,263,267.642,263,263.5z"/>
	<path d="M334.672,160.854c0.881,4.796,1.328,9.724,1.328,14.646c0,4.142,3.358,7.5,7.5,7.5s7.5-3.358,7.5-7.5
		c0-5.829-0.53-11.668-1.575-17.355c-0.748-4.074-4.658-6.773-8.731-6.021C336.62,152.871,333.924,156.781,334.672,160.854z"/>
	<path d="M255.5,95c27.315,0,52.542,13.679,67.483,36.592c1.438,2.205,3.839,3.404,6.289,3.404c1.405,0,2.826-0.394,4.09-1.219
		c3.47-2.262,4.448-6.909,2.186-10.379C317.828,96.224,287.903,80,255.5,80c-4.142,0-7.5,3.358-7.5,7.5S251.358,95,255.5,95z"/>
	<path d="M176.328,190.146C175.447,185.35,175,180.422,175,175.5c0-4.142-3.358-7.5-7.5-7.5s-7.5,3.358-7.5,7.5
		c0,5.829,0.53,11.668,1.575,17.355c0.664,3.616,3.818,6.146,7.368,6.146c0.45,0,0.906-0.041,1.364-0.125
		C174.38,198.129,177.076,194.219,176.328,190.146z"/>
</g>
<g>
</g>
<g>
</g>
<g>
</g>
<g>
</g>
<g>
</g>
<g>
</g>
<g>
</g>
<g>
</g>
<g>
</g>
<g>
</g>
<g>
</g>
<g>
</g>
<g>
</g>
<g>
</g>
<g>
</g>
</svg>
