<?xml version="1.0" encoding="iso-8859-1"?>
<!-- Generator: Adobe Illustrator 19.0.0, SVG Export Plug-In . SVG Version: 6.00 Build 0)  -->
<svg version="1.1" id="Capa_1" xmlns="http://www.w3.org/2000/svg" xmlns:xlink="http://www.w3.org/1999/xlink" x="0px" y="0px"
	 viewBox="0 0 512 512" style="enable-background:new 0 0 512 512;" xml:space="preserve">
<g>
	<g>
		<g>
			<path d="M53.28,133.459c3.55,2.58,7.67,3.83,11.75,3.83c6.18,0,12.27-2.86,16.19-8.24c6.5-8.93,4.53-21.43-4.4-27.94
				c-8.94-6.49-21.45-4.52-27.94,4.41C42.38,114.449,44.35,126.959,53.28,133.459z"/>
			<path d="M117.27,85.069c4.08,0,8.2-1.24,11.75-3.83c8.93-6.5,10.9-19.01,4.4-27.94s-19.01-10.9-27.94-4.4s-10.9,19.01-4.4,27.94
				C105,82.219,111.09,85.069,117.27,85.069z"/>
			<path d="M14.19,275.129c0.63,0.189,1.27,0.35,1.9,0.479c0.64,0.131,1.3,0.23,1.94,0.29c0.66,0.07,1.32,0.101,1.97,0.101
				s1.31-0.03,1.97-0.101c0.64-0.06,1.3-0.159,1.94-0.29c0.63-0.13,1.27-0.29,1.9-0.479c0.62-0.19,1.24-0.41,1.84-0.66
				c0.6-0.25,1.2-0.53,1.77-0.84c0.57-0.3,1.14-0.64,1.68-1c0.55-0.36,1.08-0.76,1.58-1.17c0.51-0.41,1-0.86,1.46-1.32
				c0.46-0.46,0.91-0.95,1.32-1.46c0.42-0.5,0.81-1.03,1.17-1.58c0.36-0.54,0.7-1.109,1-1.68c0.31-0.57,0.59-1.17,0.84-1.771
				c0.25-0.6,0.47-1.22,0.66-1.84c0.19-0.63,0.35-1.26,0.48-1.899c0.13-0.641,0.23-1.301,0.29-1.94c0.07-0.66,0.1-1.32,0.1-1.97
				c0-0.65-0.03-1.31-0.1-1.97c-0.06-0.64-0.16-1.3-0.29-1.94c-0.13-0.63-0.29-1.27-0.48-1.9c-0.19-0.62-0.41-1.24-0.66-1.84
				c-0.25-0.6-0.53-1.2-0.84-1.77c-0.3-0.57-0.64-1.14-1-1.68c-0.36-0.55-0.75-1.08-1.17-1.58c-0.41-0.51-0.86-1-1.32-1.46
				c-0.46-0.46-0.95-0.91-1.46-1.32c-0.5-0.41-1.03-0.81-1.58-1.17c-0.54-0.36-1.11-0.7-1.68-1c-0.57-0.31-1.17-0.59-1.77-0.84
				c-0.6-0.25-1.22-0.47-1.84-0.66c-0.63-0.19-1.27-0.35-1.9-0.48c-0.64-0.13-1.3-0.23-1.94-0.29c-1.31-0.13-2.63-0.13-3.94,0
				c-0.64,0.06-1.3,0.16-1.94,0.29c-0.63,0.13-1.27,0.29-1.9,0.48c-0.62,0.19-1.24,0.41-1.84,0.66c-0.6,0.25-1.2,0.53-1.77,0.84
				c-0.57,0.3-1.14,0.64-1.68,1c-0.55,0.36-1.08,0.76-1.58,1.17c-0.51,0.41-1,0.86-1.46,1.32c-0.46,0.46-0.91,0.95-1.32,1.46
				c-0.42,0.5-0.81,1.03-1.17,1.58c-0.36,0.54-0.7,1.11-1,1.68c-0.31,0.57-0.59,1.17-0.84,1.77c-0.25,0.6-0.47,1.22-0.66,1.84
				c-0.19,0.63-0.35,1.27-0.48,1.9c-0.13,0.64-0.23,1.3-0.29,1.94c-0.07,0.66-0.1,1.32-0.1,1.97c0,0.65,0.03,1.31,0.1,1.97
				c0.06,0.64,0.16,1.3,0.29,1.94s0.29,1.27,0.48,1.899c0.19,0.62,0.41,1.24,0.66,1.84c0.25,0.601,0.53,1.2,0.84,1.771
				c0.3,0.57,0.64,1.14,1,1.68c0.36,0.55,0.75,1.08,1.17,1.58c0.41,0.51,0.86,1,1.32,1.46c0.46,0.46,0.95,0.91,1.46,1.32
				c0.5,0.41,1.03,0.81,1.58,1.17c0.54,0.36,1.11,0.7,1.68,1c0.57,0.31,1.17,0.59,1.77,0.84
				C12.95,274.719,13.57,274.939,14.19,275.129z"/>
			<path d="M182.99,51.509c2.05,0,4.13-0.31,6.19-0.98c10.5-3.41,16.25-14.7,12.84-25.2c-3.42-10.51-14.7-16.26-25.21-12.84
				c-10.5,3.41-16.25,14.69-12.84,25.2C166.72,46.139,174.56,51.509,182.99,51.509z"/>
			<path d="M50.53,322.819c-3.42-10.5-14.7-16.25-25.2-12.84c-10.51,3.42-16.26,14.7-12.84,25.21c0-0.01,0-0.01,0-0.01
				c2.74,8.46,10.59,13.83,19.02,13.83c2.04,0,4.13-0.32,6.18-0.979C48.19,344.609,53.94,333.33,50.53,322.819z"/>
			<path d="M25.31,202.079c2.05,0.66,4.13,0.98,6.18,0.98c8.43,0,16.28-5.38,19.02-13.83c3.41-10.51-2.34-21.79-12.84-25.2
				c-10.51-3.41-21.79,2.34-25.2,12.85C9.06,187.379,14.81,198.669,25.31,202.079z"/>
			<path d="M461.47,189.179c2.75,8.45,10.59,13.82,19.02,13.82c2.05,0,4.13-0.32,6.18-0.98c10.51-3.42,16.26-14.7,12.84-25.21
				c-3.41-10.5-14.7-16.25-25.2-12.84C463.81,167.389,458.06,178.669,461.47,189.179z"/>
			<path d="M446.94,137.249c4.08,0,8.2-1.24,11.76-3.83c8.93-6.5,10.9-19.01,4.4-27.94c-6.51-8.93-19.01-10.9-27.94-4.4
				s-10.9,19.01-4.4,27.94C434.67,134.399,440.76,137.249,446.94,137.249z"/>
			<path d="M322.77,50.509c2.05,0.67,4.13,0.98,6.18,0.98c8.43,0,16.27-5.37,19.02-13.82c3.41-10.51-2.34-21.79-12.85-25.2
				c-10.5-3.41-21.79,2.34-25.2,12.84C306.51,35.819,312.26,47.099,322.77,50.509z"/>
			<path d="M382.94,81.219c3.56,2.59,7.68,3.83,11.76,3.83c6.18,0,12.27-2.85,16.18-8.23c6.5-8.94,4.53-21.44-4.4-27.94
				s-21.44-4.53-27.94,4.4S374.01,74.719,382.94,81.219z"/>
			<path d="M236.39,23.909c0.13,0.64,0.29,1.27,0.48,1.9c0.19,0.62,0.41,1.24,0.66,1.84c0.25,0.6,0.53,1.2,0.84,1.77
				c0.3,0.58,0.64,1.14,1,1.68c0.36,0.55,0.75,1.08,1.17,1.58c0.41,0.51,0.86,1,1.32,1.46c0.46,0.46,0.95,0.91,1.46,1.32
				c0.5,0.41,1.03,0.81,1.58,1.17c0.54,0.36,1.11,0.7,1.68,1c0.57,0.31,1.17,0.59,1.77,0.84c0.6,0.25,1.22,0.47,1.84,0.66
				c0.63,0.19,1.27,0.35,1.9,0.48c0.64,0.13,1.3,0.23,1.94,0.29c0.66,0.07,1.32,0.1,1.97,0.1c0.65,0,1.32-0.03,1.97-0.1
				c0.65-0.06,1.3-0.16,1.94-0.29s1.27-0.29,1.9-0.48c0.62-0.19,1.24-0.41,1.84-0.66c0.6-0.25,1.2-0.53,1.77-0.84
				c0.58-0.3,1.14-0.64,1.68-1c0.55-0.36,1.08-0.76,1.58-1.17c0.51-0.41,1-0.86,1.46-1.32c0.46-0.46,0.91-0.95,1.32-1.46
				c0.41-0.5,0.81-1.03,1.17-1.58c0.36-0.54,0.7-1.1,1-1.68c0.31-0.57,0.59-1.17,0.84-1.77c0.25-0.6,0.47-1.22,0.66-1.84
				c0.19-0.63,0.35-1.26,0.48-1.9s0.23-1.3,0.29-1.94c0.07-0.66,0.1-1.32,0.1-1.97c0-0.65-0.03-1.31-0.1-1.97
				c-0.06-0.64-0.16-1.3-0.29-1.94c-0.13-0.63-0.29-1.27-0.48-1.9c-0.19-0.62-0.41-1.24-0.66-1.84s-0.53-1.2-0.84-1.77
				c-0.3-0.57-0.64-1.14-1-1.68c-0.36-0.55-0.76-1.08-1.17-1.58c-0.41-0.51-0.86-1-1.32-1.46c-0.46-0.46-0.95-0.91-1.46-1.32
				c-0.5-0.41-1.03-0.81-1.58-1.17c-0.54-0.36-1.1-0.7-1.68-1c-0.57-0.31-1.17-0.59-1.77-0.84s-1.22-0.47-1.84-0.66
				c-0.63-0.19-1.26-0.35-1.9-0.48c-0.64-0.13-1.29-0.23-1.94-0.29c-1.31-0.13-2.63-0.13-3.94,0c-0.64,0.06-1.3,0.16-1.94,0.29
				c-0.63,0.13-1.27,0.29-1.9,0.48c-0.62,0.19-1.24,0.41-1.84,0.66c-0.6,0.25-1.2,0.53-1.77,0.84c-0.57,0.3-1.14,0.64-1.68,1
				c-0.55,0.36-1.08,0.76-1.58,1.17c-0.51,0.41-1,0.86-1.46,1.32c-0.46,0.46-0.91,0.95-1.32,1.46c-0.42,0.5-0.81,1.03-1.17,1.58
				c-0.36,0.54-0.7,1.11-1,1.68c-0.31,0.57-0.59,1.17-0.84,1.77s-0.47,1.22-0.66,1.84c-0.19,0.63-0.35,1.27-0.48,1.9
				c-0.13,0.64-0.23,1.3-0.29,1.94c-0.07,0.66-0.1,1.32-0.1,1.97c0,0.65,0.03,1.31,0.1,1.97
				C236.16,22.609,236.26,23.269,236.39,23.909z"/>
			<path d="M189.23,461.489c-10.51-3.41-21.79,2.34-25.2,12.85c-3.41,10.5,2.34,21.78,12.85,25.19c2.05,0.67,4.13,0.989,6.18,0.989
				c8.43,0,16.27-5.38,19.02-13.83C205.49,476.178,199.74,464.898,189.23,461.489z"/>
			<path d="M181,255.999c0,41.355,33.645,75,75,75s75-33.645,75-75c0-41.355-33.645-75-75-75
				C214.645,180.999,181,214.644,181,255.999z M291,255.999c0,19.299-15.701,35-35,35s-35-15.701-35-35s15.701-35,35-35
				S291,236.7,291,255.999z"/>
			<path d="M458.72,378.54c-8.93-6.5-21.44-4.53-27.94,4.399c-6.5,8.94-4.53,21.44,4.4,27.95c3.56,2.58,7.67,3.82,11.75,3.82
				c6.18,0,12.28-2.851,16.19-8.23C469.62,397.549,467.65,385.04,458.72,378.54z"/>
			<path d="M382.98,430.759c-8.93,6.5-10.9,19.01-4.4,27.93c3.91,5.379,10.01,8.24,16.18,8.24c4.09,0,8.2-1.25,11.76-3.83
				c8.93-6.51,10.9-19.01,4.4-27.95C404.42,426.219,391.91,424.25,382.98,430.759z"/>
			<path d="M486.69,309.919c-10.51-3.41-21.79,2.34-25.2,12.85c-3.41,10.5,2.34,21.79,12.84,25.2c2.06,0.66,4.14,0.98,6.19,0.98
				c8.43,0,16.27-5.37,19.01-13.83C502.94,324.619,497.19,313.329,486.69,309.919z"/>
			<path d="M511.9,254.029c-0.06-0.64-0.16-1.3-0.29-1.94c-0.13-0.63-0.29-1.27-0.48-1.9c-0.19-0.62-0.41-1.24-0.66-1.84
				c-0.25-0.6-0.53-1.2-0.84-1.77c-0.3-0.57-0.64-1.14-1-1.68c-0.36-0.55-0.76-1.08-1.17-1.58c-0.41-0.51-0.86-1-1.32-1.46
				c-0.46-0.46-0.95-0.91-1.46-1.32c-0.5-0.41-1.03-0.81-1.58-1.17c-0.54-0.36-1.11-0.7-1.68-1c-0.57-0.31-1.17-0.59-1.77-0.84
				s-1.22-0.47-1.84-0.66c-0.63-0.19-1.27-0.35-1.9-0.48c-0.64-0.13-1.3-0.23-1.94-0.29c-1.31-0.13-2.63-0.13-3.94,0
				c-0.64,0.06-1.3,0.16-1.94,0.29c-0.63,0.13-1.27,0.29-1.9,0.48c-0.62,0.19-1.24,0.41-1.84,0.66c-0.6,0.25-1.2,0.53-1.77,0.84
				c-0.57,0.3-1.14,0.64-1.68,1c-0.55,0.36-1.08,0.76-1.58,1.17c-0.51,0.41-1,0.86-1.46,1.32c-0.46,0.46-0.91,0.95-1.32,1.46
				c-0.41,0.5-0.81,1.03-1.17,1.58c-0.36,0.54-0.7,1.11-1,1.68c-0.31,0.57-0.59,1.17-0.84,1.77c-0.25,0.6-0.47,1.22-0.66,1.84
				c-0.19,0.63-0.35,1.27-0.48,1.9c-0.13,0.64-0.23,1.3-0.29,1.94c-0.07,0.66-0.1,1.32-0.1,1.97c0,0.65,0.03,1.31,0.1,1.97
				c0.06,0.64,0.16,1.3,0.29,1.94s0.29,1.27,0.48,1.899c0.19,0.62,0.41,1.24,0.66,1.84c0.25,0.601,0.53,1.2,0.84,1.771
				c0.3,0.57,0.64,1.14,1,1.68c0.36,0.55,0.76,1.08,1.17,1.58c0.41,0.51,0.86,1,1.32,1.46c0.46,0.46,0.95,0.91,1.46,1.32
				c0.5,0.41,1.03,0.81,1.58,1.17c0.54,0.36,1.11,0.7,1.68,1c0.57,0.31,1.17,0.59,1.77,0.84s1.22,0.47,1.84,0.66
				c0.63,0.189,1.27,0.35,1.9,0.479c0.64,0.131,1.3,0.23,1.94,0.29c0.66,0.07,1.32,0.101,1.97,0.101c0.65,0,1.31-0.03,1.97-0.101
				c0.64-0.06,1.3-0.159,1.94-0.29c0.63-0.13,1.27-0.29,1.9-0.479c0.62-0.19,1.24-0.41,1.84-0.66c0.6-0.25,1.2-0.53,1.77-0.84
				c0.57-0.3,1.14-0.64,1.68-1c0.55-0.36,1.08-0.76,1.58-1.17c0.51-0.41,1-0.86,1.46-1.32c0.46-0.46,0.91-0.95,1.32-1.46
				c0.41-0.5,0.81-1.03,1.17-1.58c0.36-0.54,0.7-1.109,1-1.68c0.31-0.57,0.59-1.17,0.84-1.771c0.25-0.6,0.47-1.22,0.66-1.84
				c0.19-0.63,0.35-1.26,0.48-1.899c0.13-0.641,0.23-1.301,0.29-1.94c0.07-0.66,0.1-1.32,0.1-1.97
				C512,255.349,511.97,254.689,511.9,254.029z"/>
			<path d="M322.82,461.469c-10.5,3.41-16.25,14.7-12.84,25.2c2.75,8.45,10.59,13.83,19.02,13.83c2.05,0,4.13-0.32,6.19-0.99
				c10.5-3.41,16.25-14.7,12.84-25.2C344.61,463.809,333.33,458.059,322.82,461.469z"/>
			<path d="M275.61,488.089c-0.13-0.63-0.29-1.271-0.48-1.9c-0.19-0.62-0.41-1.239-0.66-1.84c-0.25-0.6-0.53-1.2-0.84-1.77
				c-0.3-0.57-0.64-1.141-1-1.681c-0.36-0.55-0.76-1.08-1.17-1.58c-0.41-0.51-0.86-1-1.32-1.46c-0.46-0.46-0.95-0.909-1.46-1.319
				c-0.5-0.42-1.03-0.811-1.58-1.17c-0.54-0.36-1.1-0.7-1.68-1c-0.57-0.311-1.17-0.59-1.77-0.84s-1.22-0.471-1.84-0.66
				c-0.63-0.19-1.26-0.351-1.9-0.48c-0.64-0.13-1.29-0.229-1.94-0.29c-1.31-0.13-2.63-0.13-3.94,0c-0.64,0.061-1.3,0.16-1.94,0.29
				c-0.63,0.13-1.27,0.29-1.9,0.48c-0.62,0.189-1.24,0.41-1.84,0.66c-0.6,0.25-1.2,0.529-1.77,0.84c-0.57,0.3-1.14,0.64-1.68,1
				c-0.55,0.359-1.08,0.75-1.58,1.17c-0.51,0.41-1,0.859-1.46,1.319c-0.46,0.46-0.91,0.95-1.32,1.46c-0.41,0.5-0.81,1.03-1.17,1.58
				c-0.36,0.54-0.7,1.11-1,1.681c-0.31,0.569-0.59,1.17-0.84,1.77c-0.25,0.601-0.47,1.22-0.66,1.84c-0.19,0.63-0.35,1.271-0.48,1.9
				c-0.13,0.64-0.23,1.3-0.29,1.94c-0.07,0.659-0.1,1.319-0.1,1.97c0,0.649,0.03,1.31,0.1,1.97c0.06,0.64,0.16,1.3,0.29,1.94
				c0.13,0.63,0.29,1.27,0.48,1.899c0.19,0.62,0.41,1.24,0.66,1.84c0.25,0.601,0.53,1.2,0.84,1.771c0.3,0.57,0.64,1.14,1,1.68
				c0.36,0.55,0.76,1.08,1.17,1.58c0.41,0.51,0.86,1,1.32,1.46c0.46,0.46,0.95,0.91,1.46,1.32c0.5,0.41,1.03,0.81,1.58,1.17
				c0.54,0.36,1.11,0.7,1.68,1c0.57,0.31,1.17,0.59,1.77,0.84c0.6,0.25,1.22,0.47,1.84,0.66c0.63,0.189,1.27,0.35,1.9,0.479
				c0.64,0.131,1.3,0.23,1.94,0.29c0.66,0.07,1.32,0.101,1.97,0.101c0.65,0,1.32-0.03,1.97-0.101c0.65-0.06,1.3-0.159,1.94-0.29
				c0.64-0.13,1.27-0.29,1.9-0.479c0.62-0.19,1.24-0.41,1.84-0.66c0.6-0.25,1.2-0.53,1.77-0.84c0.58-0.3,1.14-0.64,1.68-1
				c0.55-0.36,1.08-0.76,1.58-1.17c0.51-0.41,1-0.86,1.46-1.32c0.46-0.46,0.91-0.95,1.32-1.46c0.41-0.5,0.81-1.03,1.17-1.58
				c0.36-0.54,0.7-1.109,1-1.68c0.31-0.57,0.59-1.17,0.84-1.771c0.25-0.6,0.47-1.22,0.66-1.84c0.19-0.63,0.35-1.27,0.48-1.899
				c0.13-0.641,0.23-1.301,0.29-1.94c0.07-0.66,0.1-1.32,0.1-1.97c0-0.65-0.03-1.311-0.1-1.97
				C275.84,489.388,275.74,488.728,275.61,488.089z"/>
			<path d="M129.05,430.78c-8.93-6.5-21.44-4.53-27.94,4.399c-6.49,8.93-4.52,21.44,4.41,27.94c3.55,2.59,7.67,3.83,11.75,3.83
				c6.18,0,12.27-2.851,16.19-8.23C139.96,449.789,137.99,437.28,129.05,430.78z"/>
			<path d="M53.3,378.58c-8.93,6.5-10.9,19.01-4.4,27.939c3.92,5.37,10.01,8.23,16.19,8.23c4.08,0,8.2-1.25,11.75-3.83
				c8.93-6.51,10.9-19.01,4.4-27.94S62.23,372.08,53.3,378.58z"/>
			<path d="M378.017,316.14c-4.892,9.903-0.829,21.897,9.074,26.79c9.904,4.895,21.898,0.83,26.79-9.073
				C425.904,309.519,432,283.323,432,255.999c0-97.047-78.953-176-176-176s-176,78.953-176,176s78.953,176,176,176
				c27.81,0,55.513-6.658,80.115-19.254c9.832-5.033,13.721-17.085,8.687-26.917c-5.033-9.832-17.084-13.721-26.917-8.687
				C298.628,387,277.808,391.999,256,391.999c-74.991,0-136-61.01-136-136c0-74.991,61.009-136,136-136s136,61.009,136,136
				C392,277.125,387.296,297.359,378.017,316.14z"/>
		</g>
	</g>
</g>
</svg>
