<?xml version="1.0" encoding="iso-8859-1"?>
<!-- Generator: Adobe Illustrator 19.0.0, SVG Export Plug-In . SVG Version: 6.00 Build 0)  -->
<svg version="1.1" id="Capa_1" xmlns="http://www.w3.org/2000/svg" xmlns:xlink="http://www.w3.org/1999/xlink" x="0px" y="0px"
	 viewBox="0 0 512 512" style="enable-background:new 0 0 512 512;" xml:space="preserve">
<g>
	<g>
		<path d="M256,0C114.842,0,0,114.842,0,256s114.842,256,256,256s256-114.842,256-256S397.158,0,256,0z M256,494.933
			C124.254,494.933,17.067,387.746,17.067,256S124.254,17.067,256,17.067S494.933,124.254,494.933,256S387.746,494.933,256,494.933z
			"/>
	</g>
</g>
<g>
	<g>
		<path d="M389.598,104.499c-3.558-3.098-8.951-2.731-12.041,0.836c-3.089,3.55-2.722,8.943,0.836,12.032
			c42.146,36.685,65.348,85.914,65.34,138.633c0,4.71,3.814,8.533,8.533,8.533c4.71,0,8.533-3.814,8.533-8.533
			C460.809,198.272,435.533,144.469,389.598,104.499z"/>
	</g>
</g>
<g>
	<g>
		<path d="M327.023,63.846C304.307,55.467,280.414,51.209,256,51.2c-4.71,0-8.533,3.814-8.533,8.533c0,4.71,3.823,8.533,8.533,8.533
			c22.391,0.009,44.297,3.908,65.109,11.597c0.981,0.358,1.98,0.529,2.961,0.529c3.465,0,6.733-2.133,7.996-5.581
			C333.705,70.391,331.443,65.476,327.023,63.846z"/>
	</g>
</g>
<g>
	<g>
		<path d="M133.478,394.522C90.803,358.793,68.25,310.895,68.267,256c0-4.71-3.823-8.533-8.533-8.533S51.2,251.281,51.2,256
			c-0.017,60.109,24.644,112.538,71.322,151.612c1.604,1.34,3.541,1.988,5.478,1.988c2.432,0,4.855-1.041,6.545-3.063
			C137.566,402.927,137.088,397.542,133.478,394.522z"/>
	</g>
</g>
<g>
	<g>
		<path d="M256,443.733c-21.077,0-41.779-3.464-61.517-10.3c-4.471-1.544-9.318,0.819-10.854,5.274
			c-1.536,4.446,0.819,9.301,5.274,10.854C210.441,457.02,233.02,460.8,256,460.8c4.71,0,8.533-3.814,8.533-8.533
			C264.533,447.548,260.71,443.733,256,443.733z"/>
	</g>
</g>
<g>
	<g>
		<path d="M256,170.667c-47.053,0-85.333,38.281-85.333,85.333s38.281,85.333,85.333,85.333s85.333-38.281,85.333-85.333
			S303.053,170.667,256,170.667z M256,324.267c-37.641,0-68.267-30.626-68.267-68.267c0-37.641,30.626-68.267,68.267-68.267
			c37.641,0,68.267,30.626,68.267,68.267C324.267,293.641,293.641,324.267,256,324.267z"/>
	</g>
</g>
<g>
</g>
<g>
</g>
<g>
</g>
<g>
</g>
<g>
</g>
<g>
</g>
<g>
</g>
<g>
</g>
<g>
</g>
<g>
</g>
<g>
</g>
<g>
</g>
<g>
</g>
<g>
</g>
<g>
</g>
</svg>
