<?xml version="1.0"?>
<svg xmlns="http://www.w3.org/2000/svg" viewBox="0 0 64 64" width="512" height="512">
  <g id="outline"><path d="M50,32A18,18,0,1,0,32,50,18.021,18.021,0,0,0,50,32ZM32,48A16,16,0,1,1,48,32,16.019,16.019,0,0,1,32,48Z"/><path d="M42,32A10,10,0,1,0,32,42,10.011,10.011,0,0,0,42,32ZM24,32a8,8,0,1,1,8,8A8.009,8.009,0,0,1,24,32Z"/><path d="M38,32a6,6,0,1,0-6,6A6.006,6.006,0,0,0,38,32ZM28,32a4,4,0,1,1,4,4A4,4,0,0,1,28,32Z"/><path d="M32,20V18A14.015,14.015,0,0,0,18,32h2A12.013,12.013,0,0,1,32,20Z"/><path d="M32,44v2A14.015,14.015,0,0,0,46,32H44A12.013,12.013,0,0,1,32,44Z"/><path d="M27,12H37a1,1,0,0,0,.848-1.53l-5-8a1.04,1.04,0,0,0-1.7,0l-5,8A1,1,0,0,0,27,12Zm5-7.113L35.2,10h-6.39Z"/><path d="M37,52H27a1,1,0,0,0-.848,1.53l5,8a1,1,0,0,0,1.7,0l5-8A1,1,0,0,0,37,52Zm-5,7.113L28.805,54H35.2Z"/><path d="M61.53,31.152l-8-5A1,1,0,0,0,52,27V37a1,1,0,0,0,1.53.848l8-5a1,1,0,0,0,0-1.7ZM54,35.2v-6.39L59.113,32Z"/><path d="M11,38a1,1,0,0,0,1-1V27a1,1,0,0,0-1.53-.848l-8,5a1,1,0,0,0,0,1.7l8,5A1,1,0,0,0,11,38Zm-1-2.8L4.887,32,10,28.805Z"/><path d="M12.756,20.97A1.019,1.019,0,0,0,13,21a1,1,0,0,0,.707-.293l7-7a1,1,0,0,0-.42-1.665l-10-3a1,1,0,0,0-1.245,1.245l3,10A1,1,0,0,0,12.756,20.97Zm-1.265-9.479,6.618,1.986-4.632,4.632Z"/><path d="M54.707,9.293a1,1,0,0,0-.994-.251l-10,3a1,1,0,0,0-.42,1.665l7,7A1,1,0,0,0,51,21a1.019,1.019,0,0,0,.244-.03,1,1,0,0,0,.714-.683l3-10A1,1,0,0,0,54.707,9.293Zm-4.184,8.816-4.632-4.632,6.618-1.986Z"/><path d="M9.293,54.707A1,1,0,0,0,10,55a1.012,1.012,0,0,0,.287-.042l10-3a1,1,0,0,0,.42-1.665l-7-7a1,1,0,0,0-1.665.42l-3,10A1,1,0,0,0,9.293,54.707Zm4.184-8.816,4.632,4.632-6.618,1.986Z"/><path d="M43.713,51.958l10,3A1.012,1.012,0,0,0,54,55a1,1,0,0,0,.958-1.287l-3-10a1,1,0,0,0-1.665-.42l-7,7a1,1,0,0,0,.42,1.665Zm6.81-6.067,1.986,6.618-6.618-1.986Z"/><rect x="18" y="34" width="2" height="2"/><rect x="44" y="28" width="2" height="2"/></g>
</svg>
