<svg height="512pt" viewBox="-210 0 512 512" width="512pt" xmlns="http://www.w3.org/2000/svg"><path d="m55.519531 235.722656v-68.398437c24.011719-11.621094 37.011719-66.53125 37.011719-96.378907 0-39.78125-20.320312-70.945312-46.265625-70.945312s-46.265625 31.164062-46.265625 70.945312c0 29.847657 13 84.757813 37.011719 96.378907v68.398437c-15.914063 4.136719-27.761719 18.496094-27.761719 35.695313v203.570312c0 20.410157 16.601562 37.011719 37.011719 37.011719 20.414062 0 37.011719-16.601562 37.011719-37.011719v-203.566406c.003906-17.203125-11.839844-31.5625-27.753907-35.699219zm-37.015625-164.777344c0-30.90625 14.628906-52.4375 27.761719-52.4375 13.128906 0 27.757813 21.53125 27.757813 52.4375 0 37.703126-18.105469 80.1875-27.757813 80.1875s-27.761719-42.484374-27.761719-80.1875zm46.265625 404.042969c0 10.207031-8.300781 18.507813-18.507812 18.507813-10.203125 0-18.503907-8.300782-18.503907-18.507813v-203.566406c0-10.207031 8.300782-18.507813 18.503907-18.507813 10.207031 0 18.507812 8.300782 18.507812 18.507813zm0 0"/><path d="m55.507812 289.925781c0 5.109375-4.140624 9.253907-9.253906 9.253907-5.109375 0-9.253906-4.144532-9.253906-9.253907s4.144531-9.253906 9.253906-9.253906c5.113282 0 9.253906 4.144531 9.253906 9.253906zm0 0"/><path d="m55.507812 326.941406c0 5.109375-4.140624 9.25-9.253906 9.25-5.109375 0-9.253906-4.140625-9.253906-9.25 0-5.113281 4.144531-9.253906 9.253906-9.253906 5.113282 0 9.253906 4.140625 9.253906 9.253906zm0 0"/></svg>